<svg width="219" height="48" viewBox="0 0 219 48" fill="none" xmlns="http://www.w3.org/2000/svg">
<g clip-path="url(#clip0_2004_80)">
<path d="M43.4459 19.6233C45.2662 19.2596 47.0888 18.9004 48.9069 18.5277C49.9629 18.3131 49.9629 18.3041 49.9629 19.3635C49.9629 21.819 49.9516 24.2722 49.9719 26.7276C49.9765 27.2404 49.8476 27.2562 49.4292 27.0484C45.0898 24.8911 40.5017 23.8362 35.6445 23.9988C31.6986 24.1298 27.9471 25.0583 24.3743 26.7254C24.1323 26.8383 23.8904 26.949 23.5828 27.0913C23.5715 26.8496 23.5534 26.6508 23.5534 26.4543C23.5534 23.2715 23.5534 20.0886 23.5489 16.9035C23.5489 16.6686 23.6281 16.4179 23.3205 16.2575C20.9032 15.0105 18.4904 13.7501 16.0867 12.4986C15.8922 12.6274 15.9691 12.7945 15.9691 12.9323C15.9646 16.1355 15.9691 19.3364 15.9578 22.5396C15.9578 22.9032 16.0483 23.0727 16.4169 23.1856C17.1065 23.398 17.1925 23.6532 16.842 24.2925C16.747 24.4664 16.851 24.5432 16.903 24.6471C17.102 25.0515 17.188 25.4784 17.188 25.9257C17.188 27.3059 17.1789 28.6884 17.1947 30.0686C17.1993 30.4323 17.1111 30.5791 16.7153 30.5633C15.9488 30.5339 15.1799 30.5452 14.4111 30.5588C14.1104 30.5655 13.9611 30.5113 13.9656 30.1567C13.9837 28.6409 13.9769 27.1274 13.9769 25.6117C13.9769 25.3384 14.0335 25.0696 14.1556 24.8346C14.3094 24.541 14.3252 24.3354 14.1126 24.0237C13.8119 23.5877 14.2279 23.2963 14.5626 23.2308C15.1686 23.1088 15.1573 22.7383 15.1573 22.2753C15.146 19.1489 15.1438 16.0248 15.1573 12.8984C15.1596 12.3292 15.2297 11.769 14.3207 11.6267C14.8679 11.333 15.2659 11.1116 15.6706 10.9016C22.5585 7.31663 29.4486 3.73397 36.3342 0.140012C36.653 -0.0248896 36.8859 -0.0610324 37.2274 0.117423C44.3798 3.85821 51.5413 7.58319 58.7004 11.3149C58.8497 11.3917 59.0306 11.4279 59.1188 11.6086C53.9744 14.421 48.692 16.9645 43.4436 19.621L43.4459 19.6233Z" fill="#0F40D8"/>
<path d="M38.6271 47.3201C40.1829 45.6982 41.8969 44.2502 43.6132 42.8045C47.5682 39.4748 51.7312 36.4388 56.2651 33.9269C60.6338 31.5053 65.2197 29.6552 70.1199 28.6207C70.4953 28.5416 70.6603 28.58 70.7214 29.0114C70.9023 30.3194 71.1284 31.6205 71.3523 32.9239C71.4111 33.265 71.3161 33.378 70.9611 33.4367C66.9654 34.0873 63.0059 34.9027 59.1256 36.0638C56.2198 36.9335 53.3616 37.932 50.7611 39.5403C50.3767 39.7798 49.9832 40.0124 49.6576 40.3581C49.8657 40.5207 50.0081 40.3648 50.146 40.3061C54.6166 38.4651 59.2341 37.1752 64.028 36.5021C66.8659 36.1045 69.7151 35.9102 72.5779 35.926C73.2337 35.9305 73.245 35.9373 73.0573 36.5766C72.7837 37.5141 72.4445 38.4334 72.2229 39.3799C72.0736 40.017 71.7412 40.1163 71.1646 40.0666C68.7111 39.8588 66.2531 39.8769 63.7996 40.0486C57.7078 40.4733 51.833 41.8489 46.1413 44.0491C43.8145 44.9505 41.5487 45.9828 39.3236 47.1077C39.1201 47.2116 38.9075 47.2997 38.6972 47.3946C38.6769 47.3653 38.652 47.3381 38.6248 47.3133L38.6271 47.3201ZM49.5174 40.462C49.5106 40.4733 49.4948 40.4891 49.4993 40.4958C49.5061 40.5117 49.5219 40.5207 49.5355 40.532C49.5423 40.5094 49.5491 40.4846 49.5559 40.462C49.5423 40.462 49.531 40.462 49.5174 40.462Z" fill="#0F40D8"/>
<path d="M34.4392 47.4013C32.6234 46.5791 30.8642 45.6416 29.0235 44.8691C23.7095 42.6418 18.2191 41.0583 12.4913 40.349C9.0926 39.9265 5.68259 39.7955 2.26128 40.0463C1.1917 40.1253 1.17813 40.1299 0.850246 39.0975C0.567586 38.203 0.327891 37.2972 0.0429704 36.4026C-0.083661 36.005 0.0520155 35.926 0.425126 35.9237C3.75146 35.9034 7.05745 36.1519 10.3408 36.6895C14.7707 37.4146 19.0445 38.6661 23.1803 40.4009C23.2504 40.4303 23.3273 40.4416 23.4019 40.4619C23.4698 40.5297 23.5399 40.5839 23.6394 40.5094C23.5942 40.4597 23.5489 40.41 23.5014 40.3603C21.7716 38.9801 19.7794 38.0991 17.7307 37.322C13.2895 35.6323 8.67652 34.6023 4.01603 33.7552C3.39418 33.6422 2.77459 33.5044 2.14822 33.4366C1.75928 33.396 1.7231 33.2153 1.77511 32.9058C1.99671 31.625 2.23415 30.3442 2.41505 29.0566C2.47836 28.6138 2.62082 28.5348 3.0369 28.6274C5.22808 29.1108 7.37855 29.7297 9.4838 30.5091C14.6825 32.4359 19.4085 35.2167 23.8949 38.4334C27.5491 41.0515 30.9637 43.9565 34.238 47.0309C34.3352 47.1212 34.4166 47.2274 34.5048 47.3268C34.4777 47.3494 34.4551 47.3765 34.4347 47.4059L34.4392 47.4013Z" fill="#0F40D8"/>
<path d="M90.9033 15.8554V15.2365C90.9033 12.284 90.9123 9.32935 90.8942 6.37693C90.892 5.93644 90.9982 5.76476 91.4686 5.79638C92.0995 5.83704 92.7372 5.82801 93.3681 5.79864C93.748 5.78057 93.8542 5.90255 93.852 6.27979C93.8361 8.65845 93.8429 11.0348 93.8429 13.4135C93.8429 15.311 93.8316 17.2108 93.852 19.1083C93.8565 19.5149 93.7434 19.6278 93.3387 19.6165C92.2646 19.5894 91.1859 19.5759 90.1141 19.621C89.6234 19.6414 89.4199 19.4448 89.2231 19.0382C87.6335 15.7425 86.0234 12.458 84.4179 9.16897C84.3682 9.06506 84.3117 8.96566 84.2325 8.81431C84.0833 9.02439 84.1421 9.22996 84.1421 9.41519C84.1375 12.6184 84.1285 15.8193 84.1511 19.0224C84.1556 19.5126 84.0086 19.6436 83.5406 19.6165C82.9097 19.5781 82.272 19.5917 81.6411 19.6143C81.3042 19.6256 81.173 19.5397 81.1753 19.1715C81.1866 14.857 81.1866 10.5424 81.1753 6.22784C81.1753 5.90481 81.268 5.79413 81.5981 5.79864C82.8848 5.81446 84.1715 5.81897 85.4581 5.79638C85.8109 5.78961 85.9081 5.99065 86.0302 6.23913C87.5114 9.26836 88.997 12.2931 90.4827 15.32C90.5731 15.5053 90.6704 15.686 90.7631 15.869C90.8083 15.8644 90.8558 15.8577 90.901 15.8531L90.9033 15.8554Z" fill="#353535"/>
<path d="M29.8579 33.7664C29.8828 30.3802 32.4606 27.4143 35.6626 27.0912C39.3756 26.7185 42.5278 28.9526 43.1994 32.5014C43.6245 34.7558 43.0276 36.7662 41.4379 38.4311C40.0201 39.9152 38.5389 41.3383 37.1075 42.8089C36.7254 43.2019 36.454 43.2087 36.0651 42.8134C34.6699 41.388 33.2385 39.9965 31.8388 38.5756C30.5272 37.2451 29.8466 35.6458 29.8579 33.7686V33.7664ZM33.0395 34.8529C33.0531 36.3483 32.8835 36.0118 34.1588 36.511C34.9593 36.825 35.7734 37.34 36.5807 37.3377C37.3879 37.3377 38.202 36.825 39.0002 36.5065C40.366 35.9666 40.1218 36.3144 40.1376 34.8687C40.1512 33.737 40.1399 33.737 41.214 33.3259C41.4424 33.2378 41.7364 33.1994 41.7183 32.8718C41.7024 32.5872 41.4288 32.5511 41.2185 32.472C39.8052 31.9344 38.3897 31.4035 36.9786 30.8614C36.7955 30.7914 36.6146 30.7078 36.4246 30.7778C34.8485 31.3719 33.2747 31.9728 31.7008 32.5691C31.5403 32.6301 31.4385 32.7408 31.443 32.908C31.4476 33.0751 31.5629 33.1791 31.7212 33.2355C31.8297 33.2739 31.9337 33.3214 32.0423 33.362C33.234 33.8341 33.0124 33.4885 33.0395 34.7919C33.0395 34.81 33.0395 34.8303 33.0395 34.8484V34.8529ZM41.2999 35.0743C41.2999 34.8055 41.3067 34.5367 41.2977 34.2701C41.2909 34.0691 41.1643 33.9516 40.9675 33.9403C40.7889 33.9313 40.6532 34.0533 40.6487 34.2114C40.6306 34.7648 40.6306 35.3205 40.651 35.874C40.6577 36.0298 40.7866 36.1586 40.9653 36.1518C41.1665 36.145 41.2841 36.0185 41.2954 35.822C41.309 35.5735 41.2977 35.325 41.2999 35.0743Z" fill="#0F40D8"/>
<path d="M205.181 11.6607C205.839 9.72932 207.008 8.49369 209.2 8.71055C210.742 8.86415 211.574 9.92359 212.028 12.1916C212.239 11.5252 212.39 10.8927 212.732 10.3302C213.476 9.1036 214.577 8.57953 215.979 8.69699C217.34 8.80994 218.17 9.62089 218.613 10.8588C218.855 11.5297 218.977 12.2322 218.98 12.9438C218.991 15.0152 218.98 17.0844 218.995 19.1558C218.998 19.4947 218.928 19.6347 218.555 19.6167C217.883 19.5873 217.209 19.5873 216.54 19.6167C216.176 19.6325 216.087 19.5082 216.092 19.1604C216.108 17.4729 216.099 15.7855 216.099 14.1004C216.099 13.5627 216.051 13.0319 215.9 12.5101C215.685 11.7737 215.219 11.3128 214.448 11.227C213.639 11.1389 212.969 11.4032 212.533 12.1238C212.162 12.736 212.085 13.4204 212.083 14.1162C212.076 15.7449 212.053 17.3758 212.096 19.0045C212.11 19.5399 211.936 19.6505 211.452 19.6189C210.859 19.5783 210.26 19.5873 209.668 19.6189C209.29 19.637 209.182 19.5195 209.186 19.14C209.206 17.4526 209.193 15.7652 209.195 14.08C209.195 13.5605 209.154 13.0477 209.01 12.5462C208.795 11.7917 208.334 11.3015 207.529 11.227C206.694 11.1502 206.023 11.4348 205.593 12.1916C205.229 12.8354 205.19 13.5469 205.184 14.254C205.168 15.8646 205.161 17.4752 205.188 19.0858C205.195 19.5263 205.066 19.646 204.641 19.6212C204.01 19.585 203.375 19.5963 202.741 19.6189C202.402 19.6302 202.276 19.5489 202.278 19.1784C202.291 15.9188 202.289 12.6592 202.28 9.40178C202.28 9.08779 202.359 8.94999 202.696 8.95903C203.386 8.9771 204.08 8.97936 204.77 8.95903C205.109 8.94773 205.193 9.08553 205.186 9.39952C205.168 10.1563 205.179 10.913 205.179 11.6697L205.181 11.6607Z" fill="#353535"/>
<path d="M114.38 11.5839C114.38 9.68638 114.396 7.78888 114.369 5.89364C114.362 5.4283 114.506 5.3018 114.952 5.32891C115.583 5.36505 116.218 5.35376 116.851 5.33117C117.193 5.31761 117.322 5.40571 117.319 5.77392C117.308 10.2398 117.31 14.708 117.317 19.1739C117.317 19.4766 117.261 19.6302 116.91 19.6166C116.2 19.5918 115.49 19.5918 114.78 19.6166C114.425 19.6279 114.371 19.4698 114.375 19.1694C114.391 18.4239 114.38 17.6785 114.303 16.9082C114.206 17.1454 114.108 17.3803 114.009 17.6152C112.876 20.2672 109.665 20.728 107.84 18.4827C106.567 16.9172 106.361 15.0717 106.585 13.1516C106.73 11.9092 107.164 10.7707 108.057 9.85129C109.997 7.85891 112.962 8.43042 114.023 10.9988C114.106 11.2044 114.194 11.4077 114.28 11.611C114.314 11.5997 114.348 11.5907 114.38 11.5794V11.5839ZM114.373 14.2946C114.391 13.6937 114.307 13.1109 114.066 12.5575C113.649 11.6065 112.851 11.1524 111.696 11.1999C110.708 11.2405 110 11.7578 109.674 12.7066C109.389 13.5401 109.385 14.3985 109.516 15.2592C109.717 16.5987 110.52 17.3487 111.804 17.4051C113.046 17.4594 113.95 16.7229 114.26 15.4331C114.35 15.0559 114.366 14.6764 114.373 14.2946Z" fill="#353535"/>
<path d="M184.898 17.1544C183.604 19.6753 181.205 20.5721 178.917 19.4901C177.806 18.966 177.227 18.0579 177.196 16.8472C177.164 15.6567 177.682 14.7441 178.745 14.1635C179.685 13.6485 180.714 13.5559 181.755 13.5356C182.657 13.5175 183.559 13.5152 184.461 13.5401C184.828 13.5491 184.914 13.4204 184.895 13.0747C184.848 12.187 184.373 11.4077 183.584 11.1547C182.632 10.8474 181.689 10.8452 180.877 11.5567C180.588 11.8097 180.472 12.1644 180.441 12.5326C180.414 12.8353 180.269 12.9076 179.991 12.9008C179.339 12.885 178.684 12.8601 178.032 12.9076C177.506 12.946 177.472 12.6952 177.533 12.2909C177.738 10.9468 178.412 9.90772 179.647 9.3317C181.513 8.45975 183.444 8.41683 185.339 9.22101C187.132 9.98001 187.792 11.4957 187.812 13.339C187.835 15.293 187.817 17.2492 187.824 19.2032C187.824 19.4743 187.781 19.6279 187.451 19.6189C186.723 19.5985 185.992 19.5985 185.262 19.6189C184.932 19.6279 184.884 19.4743 184.891 19.201C184.904 18.5685 184.895 17.9382 184.895 17.1589L184.898 17.1544ZM183 15.3224C183 15.3337 183 15.345 183 15.3563C182.426 15.3563 181.85 15.3133 181.28 15.3676C180.524 15.4398 180.131 15.8555 180.12 16.4722C180.111 17.1024 180.481 17.5 181.21 17.6604C182.024 17.8411 182.815 17.7439 183.566 17.4119C184.303 17.0843 184.832 16.567 184.893 15.6951C184.911 15.4285 184.834 15.3088 184.549 15.3179C184.034 15.3337 183.516 15.3224 183 15.3224Z" fill="#353535"/>
<path d="M173.63 37.0667C172.82 38.6683 171.545 39.4815 169.81 39.5628C168.691 39.617 167.628 39.4002 166.794 38.5599C165.369 37.1254 165.724 34.7829 167.504 33.8229C168.429 33.3237 169.44 33.231 170.459 33.2107C171.341 33.1926 172.226 33.1813 173.107 33.2175C173.569 33.2356 173.659 33.0707 173.614 32.6528C173.519 31.774 173.13 31.0941 172.275 30.8185C171.346 30.5181 170.412 30.5271 169.621 31.2206C169.338 31.4668 169.198 31.8147 169.184 32.1942C169.175 32.4969 169.024 32.5805 168.743 32.5759C168.072 32.5624 167.398 32.5511 166.728 32.5805C166.308 32.5985 166.201 32.4585 166.26 32.0496C166.495 30.3532 167.456 29.2644 169.048 28.7222C170.387 28.2659 171.762 28.2275 173.135 28.5686C175.269 29.0972 176.47 30.509 176.54 32.7024C176.606 34.7716 176.556 36.8431 176.569 38.9122C176.569 39.224 176.45 39.303 176.162 39.2963C175.452 39.2805 174.742 39.2737 174.032 39.2985C173.677 39.3098 173.621 39.1517 173.628 38.8513C173.643 38.2594 173.632 37.6653 173.632 37.0735L173.63 37.0667ZM171.622 34.9975C171.099 35.0178 170.464 34.9343 169.842 35.0698C169.175 35.2144 168.858 35.5826 168.852 36.1496C168.845 36.7392 169.182 37.1525 169.833 37.3129C170.72 37.532 171.588 37.4372 172.404 37.0441C173.069 36.7233 173.551 36.2309 173.621 35.4335C173.65 35.1127 173.562 34.9794 173.223 34.993C172.725 35.0133 172.228 34.9975 171.622 34.9975Z" fill="#353535"/>
<path d="M96.5338 37.0576C95.2246 39.7909 92.2668 39.9649 90.5686 39.1675C89.4606 38.6479 88.8726 37.7444 88.8387 36.5291C88.8048 35.3386 89.3159 34.4237 90.3787 33.8387C91.3171 33.3214 92.3482 33.2288 93.3884 33.2084C94.2907 33.1904 95.1929 33.1904 96.0952 33.2107C96.4615 33.2197 96.5519 33.0887 96.5248 32.7408C96.457 31.8666 96.1178 31.1641 95.2653 30.8501C94.3201 30.5022 93.3794 30.5158 92.5517 31.1889C92.294 31.399 92.1176 31.7062 92.1176 32.0383C92.1176 32.533 91.853 32.585 91.455 32.5691C90.8603 32.5466 90.2633 32.5375 89.6709 32.5714C89.2277 32.5963 89.1056 32.463 89.1689 32.0157C89.4108 30.3441 90.3538 29.2621 91.9208 28.7222C93.3748 28.223 94.865 28.2004 96.3394 28.6364C98.2999 29.2146 99.4034 30.6558 99.4509 32.7702C99.4984 34.801 99.4599 36.834 99.4735 38.8648C99.4758 39.1968 99.365 39.294 99.0439 39.2849C98.3542 39.2646 97.66 39.2578 96.9703 39.2849C96.5949 39.3008 96.518 39.1472 96.5293 38.8151C96.5497 38.2278 96.5361 37.6382 96.5361 37.0509L96.5338 37.0576ZM94.6502 34.9975C94.6502 35.0133 94.6502 35.0314 94.6502 35.0472C94.0397 35.0472 93.4201 34.9907 92.8186 35.0607C92.1221 35.1421 91.7693 35.5577 91.7558 36.1315C91.7422 36.7436 92.095 37.1593 92.7779 37.3219C93.6281 37.523 94.458 37.4304 95.2427 37.0757C95.8916 36.7821 96.3846 36.3235 96.5112 35.5622C96.5768 35.1601 96.5045 34.9478 96.0296 34.9885C95.5728 35.0269 95.1115 34.9975 94.6525 34.9975H94.6502Z" fill="#353535"/>
<path d="M125.978 17.2131C124.834 20.0255 121.801 20.335 119.986 19.4924C118.968 19.0203 118.382 18.2093 118.276 17.0844C118.163 15.8713 118.593 14.9068 119.646 14.2517C120.614 13.6508 121.704 13.5559 122.803 13.5333C123.723 13.5153 124.646 13.5198 125.566 13.5333C125.887 13.5378 125.994 13.4565 125.958 13.1064C125.77 11.2631 123.803 10.3076 122.224 11.3083C121.788 11.5861 121.541 11.9905 121.505 12.4897C121.48 12.8331 121.322 12.8963 121.028 12.8918C120.338 12.8805 119.646 12.8782 118.954 12.8918C118.647 12.8986 118.57 12.7947 118.586 12.4874C118.669 10.8249 119.83 9.44692 121.632 8.9477C122.97 8.57498 124.327 8.5682 125.668 8.93189C127.595 9.4537 128.802 10.9446 128.85 12.9528C128.899 15.04 128.861 17.1295 128.875 19.2191C128.875 19.5195 128.786 19.6211 128.483 19.6144C127.773 19.5963 127.063 19.594 126.353 19.6144C126.037 19.6234 125.964 19.4969 125.971 19.21C125.987 18.5436 125.976 17.8795 125.976 17.2131H125.978ZM122.97 17.7553C123.574 17.7327 124.142 17.6514 124.671 17.3984C125.37 17.0663 125.842 16.558 125.96 15.7584C126.01 15.4241 125.915 15.3111 125.578 15.3179C124.58 15.336 123.583 15.3247 122.584 15.345C122.358 15.3495 122.127 15.4037 121.912 15.4783C121.48 15.6296 121.202 15.9301 121.164 16.4022C121.121 16.8946 121.351 17.2538 121.77 17.4887C122.147 17.6988 122.572 17.7304 122.97 17.7598V17.7553Z" fill="#353535"/>
<path d="M152.962 17.2017C151.897 19.9486 148.937 20.3326 147.094 19.5397C145.855 19.0089 145.235 18.0375 145.253 16.6912C145.271 15.3765 145.968 14.5045 147.141 13.9895C148 13.6145 148.921 13.5445 149.846 13.531C150.748 13.5174 151.65 13.5151 152.552 13.5332C152.88 13.54 152.996 13.4361 152.959 13.1063C152.867 12.2547 152.568 11.5295 151.718 11.1907C150.793 10.8225 149.877 10.8451 149.038 11.4437C148.695 11.6899 148.53 12.0807 148.493 12.4851C148.464 12.8126 148.346 12.903 148.034 12.8939C147.363 12.8736 146.691 12.8691 146.02 12.8939C145.651 12.9075 145.549 12.7765 145.585 12.4286C145.73 10.9942 146.433 9.91666 147.729 9.31353C149.595 8.44384 151.526 8.41221 153.419 9.22091C154.958 9.87826 155.763 11.1478 155.824 12.7832C155.904 14.927 155.847 17.0752 155.861 19.2212C155.861 19.5261 155.763 19.6165 155.465 19.6097C154.755 19.5917 154.045 19.5894 153.335 19.6097C153.011 19.6188 152.953 19.4832 152.959 19.2031C152.975 18.5345 152.964 17.8658 152.964 17.1972L152.962 17.2017ZM151.074 15.3223C151.074 15.3358 151.074 15.3471 151.074 15.3607C150.479 15.3607 149.88 15.3155 149.292 15.372C148.595 15.4397 148.17 15.887 148.145 16.4563C148.12 17.0255 148.516 17.4931 149.188 17.6467C150.185 17.8749 151.135 17.7348 152.01 17.2017C152.546 16.8764 152.867 16.3953 152.953 15.7628C152.993 15.4578 152.928 15.2974 152.571 15.3155C152.073 15.3404 151.573 15.3223 151.074 15.3223Z" fill="#353535"/>
<path d="M114.355 31.433C114.733 30.4052 115.21 29.4565 116.182 28.8669C118.24 27.6222 120.662 28.5597 121.345 30.8593C121.507 31.4104 121.614 31.9774 121.616 32.5557C121.62 34.6452 121.616 36.737 121.632 38.8265C121.634 39.1608 121.568 39.3077 121.193 39.2918C120.521 39.2602 119.848 39.2625 119.178 39.2918C118.819 39.3077 118.726 39.1902 118.728 38.8378C118.746 37.1504 118.733 35.463 118.737 33.7755C118.737 33.3531 118.708 32.9352 118.624 32.5196C118.434 31.5799 117.864 31.0084 116.998 30.8977C115.976 30.7689 115.099 31.2026 114.692 32.0475C114.43 32.5941 114.353 33.1792 114.355 33.7801C114.357 35.4494 114.341 37.1165 114.366 38.7858C114.373 39.1947 114.255 39.3122 113.853 39.2918C113.202 39.258 112.546 39.2693 111.895 39.2896C111.583 39.2986 111.458 39.2241 111.461 38.8807C111.472 34.3945 111.472 29.906 111.461 25.4198C111.461 25.0809 111.578 24.9973 111.892 25.0086C112.546 25.029 113.199 25.038 113.851 25.0064C114.249 24.986 114.371 25.1013 114.366 25.5124C114.344 27.4867 114.357 29.461 114.357 31.4375L114.355 31.433Z" fill="#353535"/>
<path d="M30.1021 47.7312C28.0986 47.0015 26.0567 46.43 23.9401 46.1273C21.0773 45.7207 18.2078 45.6575 15.3292 45.8901C11.978 46.1612 8.67651 46.744 5.42027 47.5685C5.10143 47.6498 4.94541 47.5663 4.77807 47.2952C3.93914 45.9421 3.14995 44.5664 2.46931 43.1252C2.30197 42.7683 2.32459 42.6644 2.75423 42.5898C8.95917 41.4965 15.0556 41.9912 21.0638 43.8074C24.2092 44.7584 27.228 46.0212 30.1134 47.5956C30.1089 47.6408 30.1066 47.686 30.1021 47.7312Z" fill="#0F40D8"/>
<path d="M42.8964 47.6679C44.0723 46.8999 45.3747 46.3848 46.6478 45.8156C50.8583 43.9294 55.2588 42.705 59.8492 42.2216C63.5124 41.8354 67.1644 41.9822 70.8322 42.6621C70.5111 43.5341 70.0747 44.3202 69.645 45.104C69.2403 45.8427 68.7767 46.5497 68.3697 47.2862C68.1955 47.6024 67.9988 47.6453 67.6754 47.555C64.9348 46.7914 62.1398 46.3013 59.3178 46.0031C53.8839 45.4271 48.5111 45.6326 43.3283 47.6182C43.2039 47.6657 43.0705 47.686 42.9416 47.7176C42.9258 47.7018 42.9122 47.686 42.8964 47.6702V47.6679Z" fill="#0F40D8"/>
<path d="M125.747 35.2325C125.747 36.5133 125.734 37.6631 125.756 38.8106C125.763 39.1901 125.648 39.3076 125.27 39.2918C124.599 39.2624 123.927 39.2715 123.255 39.2895C122.946 39.2986 122.814 39.224 122.817 38.8807C122.826 34.3967 122.826 29.9127 122.817 25.4265C122.817 25.0967 122.923 24.995 123.246 25.0063C123.859 25.0289 124.476 25.0447 125.087 25.0041C125.593 24.9702 125.772 25.0989 125.763 25.6501C125.727 27.8526 125.75 30.0573 125.75 32.262V32.8922C126.001 32.9465 126.059 32.7409 126.161 32.6279C127.167 31.4962 128.183 30.369 129.16 29.2124C129.508 28.8013 129.856 28.5799 130.424 28.6161C131.26 28.6726 132.104 28.6296 132.965 28.6296C132.97 28.8736 132.805 28.9617 132.698 29.0769C131.296 30.6017 129.897 32.1287 128.477 33.6354C128.205 33.9223 128.192 34.0759 128.483 34.3583C130.005 35.8198 131.502 37.3062 133.013 38.779C133.146 38.91 133.316 39.0049 133.47 39.1178C133.44 39.1721 133.413 39.2263 133.384 39.2782C132.246 39.2782 131.106 39.2782 129.969 39.2782C129.72 39.2782 129.607 39.0817 129.463 38.9371C128.391 37.8664 127.326 36.7889 126.258 35.7136C126.127 35.5804 125.987 35.4539 125.75 35.228L125.747 35.2325Z" fill="#353535"/>
<path d="M105.721 14.2922C105.721 17.1362 104.224 19.1896 101.665 19.7453C98.0037 20.5404 94.6186 18.2228 94.9555 13.7727C95.1658 11.0032 96.7577 9.21189 99.1592 8.78947C102.911 8.12986 105.721 10.4882 105.721 14.29V14.2922ZM97.868 14.299C97.8386 14.8976 97.9358 15.4962 98.1982 16.061C98.6255 16.9826 99.3944 17.3779 100.371 17.3621C101.353 17.3486 102.103 16.9171 102.49 15.9796C102.899 14.988 102.922 13.9669 102.619 12.9482C102.273 11.7803 101.418 11.1726 100.227 11.2088C99.1027 11.2427 98.275 11.9384 97.9924 13.0837C97.8951 13.4745 97.8454 13.8721 97.868 14.299Z" fill="#353535"/>
<path d="M153.084 33.9766C153.082 36.7958 151.589 38.8514 149.077 39.4116C145.339 40.2474 141.943 37.8439 142.327 33.3848C142.546 30.83 143.88 29.1696 146.029 28.5868C149.572 27.6245 153.115 29.6666 153.086 33.9744L153.084 33.9766ZM145.228 33.9879C145.206 34.5685 145.296 35.131 145.527 35.6663C145.913 36.5586 146.727 37.0804 147.713 37.0465C148.715 37.0126 149.482 36.5925 149.866 35.6234C150.284 34.5662 150.293 33.491 149.916 32.427C149.556 31.4105 148.749 30.8796 147.668 30.8842C146.598 30.8887 145.825 31.4444 145.45 32.4677C145.271 32.9601 145.208 33.4684 145.226 33.9857L145.228 33.9879Z" fill="#353535"/>
<path d="M108.765 32.0519C108.593 32.0519 108.419 32.0406 108.247 32.0519C107.714 32.0926 107.221 32.1152 107.164 31.3652C107.148 31.1529 106.927 30.9834 106.73 30.8502C106.054 30.3916 104.546 30.369 103.863 30.8208C103.56 31.0218 103.356 31.2794 103.381 31.6747C103.408 32.1084 103.695 32.3252 104.048 32.454C104.991 32.7974 105.997 32.8538 106.97 33.0639C107.571 33.1927 108.161 33.3418 108.729 33.5857C109.839 34.0646 110.479 34.8824 110.515 36.0977C110.551 37.3107 110.034 38.2504 108.96 38.8423C107.702 39.5335 106.325 39.6216 104.934 39.5629C104.071 39.5267 103.218 39.398 102.413 39.0433C101.208 38.5125 100.505 37.6089 100.317 36.3032C100.263 35.9305 100.326 35.7362 100.776 35.7588C101.445 35.795 102.119 35.7746 102.791 35.7656C103.04 35.7611 103.157 35.8198 103.2 36.0999C103.293 36.7053 103.673 37.0848 104.261 37.2565C105.133 37.514 106.002 37.5027 106.861 37.2045C107.309 37.0487 107.641 36.7527 107.648 36.249C107.655 35.734 107.307 35.4539 106.861 35.298C105.896 34.9614 104.876 34.8824 103.883 34.6745C103.261 34.5458 102.657 34.3718 102.078 34.103C99.8805 33.0842 100.222 30.3961 101.57 29.3819C102.332 28.8081 103.193 28.5393 104.12 28.4218C105.414 28.2592 106.689 28.3315 107.915 28.8058C109.179 29.296 109.952 30.1951 110.174 31.5482C110.233 31.9096 110.151 32.0881 109.74 32.0519C109.416 32.0225 109.088 32.0451 108.761 32.0451L108.765 32.0519Z" fill="#353535"/>
<path d="M135.175 17.5586C135.97 14.8389 136.757 12.1801 137.519 9.51457C137.637 9.10118 137.802 8.91369 138.261 8.94532C138.91 8.98823 139.566 8.96339 140.217 8.95435C140.518 8.94983 140.685 8.96565 140.55 9.36322C139.423 12.6567 138.315 15.9548 137.212 19.2573C137.124 19.5216 137.004 19.6165 136.728 19.6142C135.634 19.6007 134.541 19.5962 133.447 19.6165C133.13 19.6233 133.017 19.4855 132.929 19.2212C131.85 15.9525 130.767 12.6838 129.673 9.41969C129.562 9.08763 129.553 8.93402 129.978 8.94983C130.706 8.97694 131.437 8.97242 132.165 8.94983C132.502 8.9408 132.615 9.07633 132.703 9.38807C133.413 11.8887 134.141 14.3848 134.872 16.8809C134.933 17.0933 134.937 17.335 135.172 17.5586H135.175Z" fill="#353535"/>
<path d="M155.056 33.7733C155.056 32.9036 155.038 32.174 155.062 31.4466C155.076 31.0739 154.961 30.9519 154.579 30.9564C153.749 30.9654 153.749 30.9451 153.749 30.089C153.749 29.9941 153.749 29.8969 153.749 29.8021C153.755 29.4587 153.656 29.0589 153.796 28.7833C153.975 28.4377 154.42 28.6703 154.746 28.6387C155.01 28.6139 155.058 28.4874 155.056 28.266C155.051 27.7103 155.071 27.1546 155.049 26.5989C155.035 26.2646 155.164 26.1697 155.483 26.1765C156.173 26.1946 156.865 26.1968 157.554 26.1765C157.885 26.1675 157.998 26.2894 157.986 26.6079C157.97 27.0868 158.007 27.568 157.975 28.0446C157.946 28.4829 158.07 28.6658 158.543 28.6387C159.212 28.6003 159.886 28.65 160.557 28.6207C160.942 28.6048 161.057 28.7404 161.034 29.1131C161.005 29.5897 161.007 30.0709 161.034 30.5498C161.053 30.8864 160.921 30.9767 160.603 30.9699C159.874 30.9519 159.144 30.9767 158.416 30.9586C158.099 30.9519 157.975 31.0535 157.979 31.3833C157.995 32.8019 157.968 34.2205 157.998 35.6369C158.025 36.8974 158.515 37.3085 159.775 37.2091C159.852 37.2023 159.929 37.1978 160.003 37.1843C160.686 37.0743 161.028 37.3725 161.028 38.0788C161.028 39.2421 161.028 39.2534 159.886 39.4545C159.185 39.5787 158.479 39.6171 157.767 39.4997C156.345 39.2647 155.379 38.1917 155.148 36.6105C155.001 35.6166 155.085 34.6204 155.056 33.7688V33.7733Z" fill="#353535"/>
<path d="M157.964 14.0233C157.964 13.2214 157.941 12.5302 157.973 11.8412C157.991 11.4233 157.88 11.2652 157.432 11.281C156.65 11.3058 156.648 11.2787 156.648 10.4881C156.648 10.1425 156.675 9.79462 156.641 9.45352C156.6 9.03562 156.77 8.93848 157.161 8.94752C158.029 8.96785 157.941 9.06498 157.968 8.15238C157.984 7.62153 157.728 6.94385 158.086 6.60275C158.411 6.29328 159.076 6.51691 159.59 6.51239C160.89 6.5011 160.89 6.50787 160.89 7.77739C160.89 8.56199 161.279 8.9543 162.057 8.9543H162.172C164.117 8.9543 164.169 9.02206 163.933 10.9806C163.895 11.2991 163.723 11.2878 163.504 11.2878C162.773 11.2878 162.045 11.2991 161.315 11.281C160.994 11.272 160.881 11.3759 160.883 11.7057C160.899 13.1424 160.878 14.5813 160.901 16.0202C160.919 17.1655 161.417 17.5992 162.57 17.5405C162.665 17.536 162.762 17.5337 162.857 17.5179C163.194 17.4659 163.682 17.2468 163.832 17.3891C164.087 17.6331 163.918 18.112 163.922 18.4892C163.936 19.5532 163.929 19.56 162.866 19.761C162.301 19.8672 161.731 19.944 161.15 19.8762C159.223 19.6548 158.199 18.5931 158.022 16.6663C157.939 15.7469 157.977 14.8275 157.959 14.0211L157.964 14.0233Z" fill="#353535"/>
<path d="M170.464 14.1545C170.464 13.3504 170.448 12.5439 170.471 11.7397C170.48 11.3828 170.358 11.2495 170.009 11.288C169.838 11.306 169.664 11.2767 169.492 11.2925C169.18 11.3218 169.096 11.1727 169.105 10.8859C169.121 10.3889 169.132 9.88741 169.103 9.39045C169.08 9.01321 169.245 8.94996 169.575 8.9477C170.464 8.94318 170.457 8.92963 170.469 8.01476C170.475 7.53813 170.265 6.92144 170.55 6.62326C170.862 6.29346 171.495 6.51935 171.986 6.51257C173.356 6.49676 173.356 6.50806 173.356 7.87471C173.356 8.59455 173.718 8.95448 174.442 8.95448C174.959 8.95448 175.48 8.96577 175.997 8.94996C176.312 8.94092 176.452 9.04032 176.438 9.37464C176.418 9.8716 176.42 10.3708 176.438 10.87C176.45 11.2044 176.309 11.3015 175.993 11.2947C175.262 11.2789 174.532 11.306 173.804 11.2834C173.451 11.2721 173.343 11.3828 173.347 11.7375C173.365 13.1358 173.343 14.5363 173.361 15.9368C173.377 17.1747 173.897 17.631 175.127 17.5384C175.183 17.5339 175.242 17.5294 175.299 17.5249C175.656 17.4819 176.122 17.1928 176.334 17.3916C176.601 17.6423 176.42 18.1506 176.427 18.5482C176.441 19.5511 176.431 19.5534 175.414 19.7522C174.828 19.8651 174.238 19.9487 173.641 19.8809C171.662 19.6618 170.588 18.5278 170.487 16.5129C170.448 15.729 170.48 14.9406 170.48 14.1545C170.473 14.1545 170.466 14.1545 170.459 14.1545H170.464Z" fill="#353535"/>
<path d="M82.0911 33.6828C82.0911 32.9351 82.073 32.1874 82.0979 31.4397C82.1114 31.0602 81.9893 30.9111 81.6117 30.9631C81.4805 30.9812 81.3426 30.9541 81.2092 30.9676C80.8655 31.0038 80.7207 30.875 80.7388 30.5158C80.7615 30.0573 80.7705 29.5942 80.7388 29.1356C80.7094 28.7177 80.8836 28.6183 81.2702 28.6228C82.0911 28.6341 82.0866 28.6161 82.0933 27.8051C82.0979 27.2901 81.926 26.6124 82.1861 26.3052C82.4913 25.946 83.1946 26.199 83.7237 26.19C84.981 26.1696 84.981 26.1832 84.981 27.4369C84.981 28.6906 84.981 28.6319 86.1908 28.6319C86.2677 28.6319 86.3445 28.6274 86.4214 28.6319C86.9528 28.6725 87.7375 28.3879 87.9591 28.7403C88.2892 29.2666 88.045 30.0392 88.0631 30.7056C88.0722 31.0083 87.8392 30.9631 87.6538 30.9631C86.9053 30.9676 86.1569 30.9766 85.4084 30.9586C85.085 30.9518 84.9742 31.0534 84.9765 31.3833C84.9923 32.7635 84.9629 34.1437 84.99 35.5239C85.0194 36.947 85.6594 37.4304 87.084 37.1706C87.7382 37.0502 88.0654 37.3152 88.0654 37.9658C88.0654 38.8799 87.6041 39.3904 86.6815 39.4973C85.9737 39.5787 85.2659 39.6261 84.5649 39.4476C83.0453 39.0636 82.177 37.8596 82.1024 35.9802C82.073 35.2144 82.0979 34.4464 82.0979 33.6806H82.0888L82.0911 33.6828Z" fill="#353535"/>
<path d="M141.373 12.4422C141.373 10.2759 141.391 8.1118 141.359 5.94549C141.35 5.41916 141.511 5.28814 142.006 5.32654C142.578 5.36946 143.159 5.37398 143.731 5.32654C144.249 5.28362 144.312 5.505 144.31 5.95001C144.294 9.83989 144.301 13.7298 144.301 17.6196C144.301 18.1189 144.274 18.6181 144.31 19.1128C144.339 19.533 144.177 19.6323 143.785 19.6143C143.173 19.5849 142.555 19.5781 141.945 19.6143C141.499 19.6414 141.359 19.5126 141.364 19.0495C141.389 16.8471 141.375 14.6424 141.375 12.4377L141.373 12.4422Z" fill="#353535"/>
<path d="M194.006 12.4761C194.006 10.2917 194.022 8.10508 193.995 5.9207C193.988 5.43051 194.14 5.29723 194.608 5.3266C195.239 5.365 195.874 5.34919 196.507 5.33112C196.819 5.32208 196.948 5.40114 196.948 5.74224C196.939 10.2285 196.939 14.7147 196.948 19.1987C196.948 19.5353 196.83 19.6234 196.512 19.6143C195.84 19.594 195.166 19.5827 194.497 19.6188C194.069 19.6414 193.995 19.472 193.997 19.0903C194.013 16.8855 194.004 14.6808 194.004 12.4761H194.006Z" fill="#353535"/>
<path d="M141.305 32.1446C141.305 34.3493 141.291 36.5518 141.316 38.7565C141.321 39.197 141.192 39.3167 140.767 39.2919C140.115 39.2557 139.462 39.2693 138.811 39.2874C138.496 39.2964 138.374 39.2151 138.374 38.8762C138.383 34.3923 138.383 29.9083 138.374 25.4243C138.374 25.0923 138.483 24.9951 138.806 25.0042C139.457 25.0245 140.113 25.0448 140.762 24.9996C141.255 24.9635 141.318 25.1713 141.316 25.5915C141.298 27.7759 141.307 29.9602 141.307 32.1446H141.305Z" fill="#353535"/>
<path d="M162.07 32.1491C162.07 29.9444 162.084 27.742 162.059 25.5372C162.054 25.0968 162.181 24.977 162.606 25.0019C163.237 25.038 163.872 25.029 164.506 25.0041C164.847 24.9906 164.971 25.0764 164.969 25.4469C164.956 29.9128 164.958 34.3787 164.969 38.8446C164.969 39.206 164.858 39.3054 164.51 39.2896C163.897 39.2648 163.28 39.2512 162.669 39.2919C162.201 39.3235 162.052 39.1947 162.059 38.7045C162.086 36.5202 162.07 34.3358 162.07 32.1491Z" fill="#353535"/>
<path d="M180.617 31.8826C180.927 30.979 181.257 30.098 181.992 29.4226C182.713 28.7607 183.579 28.6342 184.504 28.6591C184.737 28.6658 184.796 28.7833 184.794 28.9866C184.789 29.6575 184.785 30.3262 184.798 30.9971C184.803 31.2704 184.701 31.363 184.43 31.363C183.95 31.363 183.469 31.354 182.996 31.4172C181.345 31.6341 180.68 32.3524 180.635 34.0285C180.594 35.5782 180.592 37.1323 180.633 38.6819C180.647 39.2173 180.472 39.3257 179.988 39.2941C179.358 39.2534 178.722 39.2738 178.091 39.2896C177.824 39.2964 177.72 39.215 177.723 38.9349C177.729 35.6414 177.729 32.3479 177.723 29.0544C177.723 28.7539 177.82 28.6523 178.118 28.6591C178.808 28.6749 179.5 28.6839 180.19 28.6568C180.572 28.641 180.631 28.8059 180.624 29.1312C180.608 30.0506 180.617 30.9677 180.617 31.8871V31.8826Z" fill="#353535"/>
<path d="M198.156 14.317C198.156 12.7087 198.171 11.0981 198.144 9.48971C198.137 9.05148 198.269 8.92498 198.696 8.94757C199.347 8.98145 200.001 8.9679 200.652 8.95209C200.966 8.94531 201.095 9.04244 201.095 9.37676C201.086 12.6522 201.086 15.9299 201.095 19.2054C201.095 19.5465 200.969 19.6255 200.657 19.6165C199.967 19.5984 199.275 19.5894 198.585 19.6188C198.203 19.6346 198.147 19.4742 198.149 19.1466C198.162 17.5383 198.156 15.9277 198.156 14.3193V14.317Z" fill="#353535"/>
<path d="M137.171 33.9877C137.171 35.5984 137.16 37.2067 137.18 38.8151C137.185 39.1991 137.065 39.3053 136.694 39.2894C136.043 39.2623 135.389 39.2669 134.738 39.2894C134.401 39.3007 134.27 39.2239 134.272 38.8512C134.288 35.6142 134.286 32.3749 134.272 29.1378C134.272 28.7606 134.381 28.6386 134.758 28.6544C135.392 28.6815 136.025 28.6838 136.658 28.6544C137.054 28.6363 137.185 28.7493 137.18 29.1604C137.158 30.7688 137.171 32.3794 137.171 33.9877Z" fill="#353535"/>
<path d="M188.683 33.9969C188.683 35.5872 188.672 37.1775 188.692 38.7678C188.697 39.1496 188.624 39.3145 188.197 39.2919C187.528 39.2557 186.854 39.2693 186.182 39.2874C185.884 39.2964 185.786 39.2038 185.786 38.8988C185.795 35.6234 185.795 32.3457 185.786 29.0702C185.786 28.7314 185.911 28.6478 186.223 28.6546C186.894 28.6726 187.566 28.6772 188.238 28.6546C188.593 28.641 188.692 28.763 188.69 29.1109C188.674 30.7396 188.683 32.3683 188.683 33.9969Z" fill="#353535"/>
<path d="M190.02 12.1102C189.365 12.1102 189.071 11.7789 189.135 11.1162C189.303 9.38591 189.479 7.65557 189.624 5.92297C189.66 5.47796 189.796 5.29273 190.275 5.32209C190.962 5.36501 191.654 5.34242 192.342 5.32887C192.634 5.32435 192.76 5.37405 192.67 5.71289C192.143 7.72559 191.625 9.74056 191.125 11.76C191.053 12.056 190.915 12.126 190.648 12.1102C190.438 12.0966 190.228 12.1079 190.017 12.1079L190.02 12.1102Z" fill="#353535"/>
<path d="M199.58 7.86791C198.62 7.86791 198.14 7.383 198.14 6.41316C198.14 5.69482 198.497 5.33565 199.212 5.33565C199.709 5.33565 200.207 5.34469 200.704 5.33114C200.975 5.32436 201.134 5.37405 201.122 5.7016C201.102 6.31151 201.109 6.92368 201.12 7.53359C201.125 7.77981 201.036 7.87695 200.788 7.87017C200.387 7.85888 199.985 7.86791 199.582 7.86791H199.58Z" fill="#353535"/>
<path d="M135.713 27.5431C134.742 27.5431 134.256 27.0597 134.256 26.0929C134.256 25.3731 134.616 25.0131 135.335 25.0131C135.833 25.0131 136.332 25.0244 136.83 25.0086C137.103 24.9996 137.201 25.0967 137.194 25.3701C137.178 25.9619 137.178 26.556 137.194 27.1501C137.203 27.4415 137.115 27.568 136.805 27.5477C136.443 27.5251 136.077 27.5431 135.713 27.5431Z" fill="#353535"/>
<path d="M187.347 25.0132C187.718 25.0471 188.308 24.8189 188.593 25.0968C188.907 25.4017 188.688 26.0026 188.694 26.4725C188.712 27.5409 188.701 27.5409 187.614 27.5409C187.134 27.5409 186.655 27.5297 186.175 27.5455C185.895 27.5545 185.75 27.4913 185.762 27.1705C185.782 26.5786 185.782 25.9845 185.762 25.3904C185.75 25.0787 185.879 24.9929 186.166 25.0064C186.53 25.0245 186.894 25.0109 187.344 25.0109L187.347 25.0132Z" fill="#353535"/>
<path d="M30.1021 47.7312C30.1066 47.6861 30.1089 47.6409 30.1134 47.5957C30.3576 47.6793 30.5951 47.7742 30.8031 47.9978C30.5159 47.9775 30.3056 47.86 30.1021 47.7312Z" fill="#0F40D8"/>
<path d="M42.9394 47.7153C42.8806 47.7402 42.8195 47.7673 42.7585 47.7899C42.7517 47.7921 42.7336 47.7673 42.7223 47.7537C42.7788 47.7266 42.8376 47.6973 42.8941 47.6702C42.9077 47.686 42.9235 47.7018 42.9394 47.7176V47.7153Z" fill="#0F40D8"/>
<path d="M34.5093 47.3223L34.5749 47.4262C34.5297 47.4171 34.4844 47.4081 34.4415 47.4013C34.4618 47.372 34.4844 47.3471 34.5116 47.3245L34.5093 47.3223Z" fill="#0F40D8"/>
<path d="M38.6995 47.4014C38.6542 47.4104 38.5774 47.4398 38.5661 47.4217C38.5231 47.363 38.5819 47.3381 38.6271 47.3201C38.6542 47.3449 38.6769 47.372 38.6995 47.4014Z" fill="#0F40D8"/>
<path d="M49.5174 40.4641C49.531 40.4641 49.5423 40.4641 49.5559 40.4641C49.5491 40.4867 49.5423 40.5115 49.5355 40.5341C49.5242 40.5228 49.5061 40.5115 49.4993 40.498C49.4971 40.4912 49.5106 40.4754 49.5174 40.4641Z" fill="#0F40D8"/>
<path d="M23.506 40.3604C23.5512 40.41 23.5964 40.4597 23.6439 40.5094C23.5467 40.584 23.4766 40.5298 23.4065 40.462C23.4404 40.4281 23.472 40.3942 23.506 40.3604Z" fill="#0F40D8"/>
<path d="M40.4407 32.89C39.154 33.3802 37.9736 33.8275 36.7977 34.2793C36.6462 34.338 36.5083 34.3425 36.3545 34.2815C35.1787 33.8275 34.0005 33.378 32.7274 32.89C34.0209 32.3976 35.2284 31.9345 36.4359 31.4759C36.5693 31.4262 36.696 31.4692 36.8249 31.5189C37.9849 31.9616 39.1495 32.3976 40.4429 32.8855L40.4407 32.89Z" fill="#0F40D8"/>
</g>
<defs>
<clipPath id="clip0_2004_80">
<rect width="219" height="48" fill="white"/>
</clipPath>
</defs>
</svg>
